<mxfile host="drawio-plugin" modified="2021-10-19T16:35:50.043Z" agent="5.0 (Windows NT 6.2; Win64; x64) AppleWebKit/537.36 (KHTML, like Gecko) Chrome/89.0.4389.114 Safari/537.36" etag="yDBLn0Z_xLDvlYxO_Mqd" version="14.7.4" type="embed"><diagram id="V2ulIToPG5p6rQj-2QB7" name="Pagina-1"><mxGraphModel dx="1100" dy="743" grid="1" gridSize="10" guides="1" tooltips="1" connect="1" arrows="1" fold="1" page="1" pageScale="1" pageWidth="1169" pageHeight="827" math="0" shadow="0"><root><mxCell id="0"/><mxCell id="1" parent="0"/><mxCell id="oNbJA-6rz5GhmISG-e36-1" value="FConnection" style="swimlane;fontStyle=1;align=center;verticalAlign=top;childLayout=stackLayout;horizontal=1;startSize=26;horizontalStack=0;resizeParent=1;resizeParentMax=0;resizeLast=0;collapsible=1;marginBottom=0;" parent="1" vertex="1"><mxGeometry x="120" y="40" width="200" height="242" as="geometry"><mxRectangle x="140" y="40" width="110" height="26" as="alternateBounds"/></mxGeometry></mxCell><mxCell id="oNbJA-6rz5GhmISG-e36-2" value="- host: string" style="text;strokeColor=none;fillColor=none;align=left;verticalAlign=top;spacingLeft=4;spacingRight=4;overflow=hidden;rotatable=0;points=[[0,0.5],[1,0.5]];portConstraint=eastwest;fontStyle=4" parent="oNbJA-6rz5GhmISG-e36-1" vertex="1"><mxGeometry y="26" width="200" height="26" as="geometry"/></mxCell><mxCell id="oNbJA-6rz5GhmISG-e36-3" value="- user: string" style="text;strokeColor=none;fillColor=none;align=left;verticalAlign=top;spacingLeft=4;spacingRight=4;overflow=hidden;rotatable=0;points=[[0,0.5],[1,0.5]];portConstraint=eastwest;fontStyle=4" parent="oNbJA-6rz5GhmISG-e36-1" vertex="1"><mxGeometry y="52" width="200" height="26" as="geometry"/></mxCell><mxCell id="oNbJA-6rz5GhmISG-e36-4" value="- password: string" style="text;strokeColor=none;fillColor=none;align=left;verticalAlign=top;spacingLeft=4;spacingRight=4;overflow=hidden;rotatable=0;points=[[0,0.5],[1,0.5]];portConstraint=eastwest;fontStyle=4" parent="oNbJA-6rz5GhmISG-e36-1" vertex="1"><mxGeometry y="78" width="200" height="26" as="geometry"/></mxCell><mxCell id="oNbJA-6rz5GhmISG-e36-5" value="- database: string" style="text;strokeColor=none;fillColor=none;align=left;verticalAlign=top;spacingLeft=4;spacingRight=4;overflow=hidden;rotatable=0;points=[[0,0.5],[1,0.5]];portConstraint=eastwest;fontStyle=4" parent="oNbJA-6rz5GhmISG-e36-1" vertex="1"><mxGeometry y="104" width="200" height="26" as="geometry"/></mxCell><mxCell id="oNbJA-6rz5GhmISG-e36-8" value="- instance: ?FConnection" style="text;strokeColor=none;fillColor=none;align=left;verticalAlign=top;spacingLeft=4;spacingRight=4;overflow=hidden;rotatable=0;points=[[0,0.5],[1,0.5]];portConstraint=eastwest;fontStyle=4" parent="oNbJA-6rz5GhmISG-e36-1" vertex="1"><mxGeometry y="130" width="200" height="26" as="geometry"/></mxCell><mxCell id="oNbJA-6rz5GhmISG-e36-6" value="" style="line;strokeWidth=1;fillColor=none;align=left;verticalAlign=middle;spacingTop=-1;spacingLeft=3;spacingRight=3;rotatable=0;labelPosition=right;points=[];portConstraint=eastwest;" parent="oNbJA-6rz5GhmISG-e36-1" vertex="1"><mxGeometry y="156" width="200" height="8" as="geometry"/></mxCell><mxCell id="oNbJA-6rz5GhmISG-e36-9" value="- __construct()" style="text;strokeColor=none;fillColor=none;align=left;verticalAlign=top;spacingLeft=4;spacingRight=4;overflow=hidden;rotatable=0;points=[[0,0.5],[1,0.5]];portConstraint=eastwest;" parent="oNbJA-6rz5GhmISG-e36-1" vertex="1"><mxGeometry y="164" width="200" height="26" as="geometry"/></mxCell><mxCell id="oNbJA-6rz5GhmISG-e36-50" value="+ getInstance(): FConnection" style="text;strokeColor=none;fillColor=none;align=left;verticalAlign=top;spacingLeft=4;spacingRight=4;overflow=hidden;rotatable=0;points=[[0,0.5],[1,0.5]];portConstraint=eastwest;fontStyle=4" parent="oNbJA-6rz5GhmISG-e36-1" vertex="1"><mxGeometry y="190" width="200" height="26" as="geometry"/></mxCell><mxCell id="oNbJA-6rz5GhmISG-e36-7" value="+ connect(): PDO" style="text;strokeColor=none;fillColor=none;align=left;verticalAlign=top;spacingLeft=4;spacingRight=4;overflow=hidden;rotatable=0;points=[[0,0.5],[1,0.5]];portConstraint=eastwest;" parent="oNbJA-6rz5GhmISG-e36-1" vertex="1"><mxGeometry y="216" width="200" height="26" as="geometry"/></mxCell><mxCell id="oNbJA-6rz5GhmISG-e36-10" value="FPersistentManager" style="swimlane;fontStyle=1;align=center;verticalAlign=top;childLayout=stackLayout;horizontal=1;startSize=26;horizontalStack=0;resizeParent=1;resizeParentMax=0;resizeLast=0;collapsible=1;marginBottom=0;" parent="1" vertex="1"><mxGeometry x="440" y="10" width="560" height="970" as="geometry"><mxRectangle x="140" y="40" width="110" height="26" as="alternateBounds"/></mxGeometry></mxCell><mxCell id="oNbJA-6rz5GhmISG-e36-12" value="+ ENTITY_USER: int" style="text;strokeColor=none;fillColor=none;align=left;verticalAlign=top;spacingLeft=4;spacingRight=4;overflow=hidden;rotatable=0;points=[[0,0.5],[1,0.5]];portConstraint=eastwest;fontStyle=4" parent="oNbJA-6rz5GhmISG-e36-10" vertex="1"><mxGeometry y="26" width="560" height="26" as="geometry"/></mxCell><mxCell id="oNbJA-6rz5GhmISG-e36-36" value="+ ENTITY_MODERATORE: int" style="text;strokeColor=none;fillColor=none;align=left;verticalAlign=top;spacingLeft=4;spacingRight=4;overflow=hidden;rotatable=0;points=[[0,0.5],[1,0.5]];portConstraint=eastwest;fontStyle=4" parent="oNbJA-6rz5GhmISG-e36-10" vertex="1"><mxGeometry y="52" width="560" height="26" as="geometry"/></mxCell><mxCell id="oNbJA-6rz5GhmISG-e36-38" value="+ ENTITY_ADMIN: int" style="text;strokeColor=none;fillColor=none;align=left;verticalAlign=top;spacingLeft=4;spacingRight=4;overflow=hidden;rotatable=0;points=[[0,0.5],[1,0.5]];portConstraint=eastwest;fontStyle=4" parent="oNbJA-6rz5GhmISG-e36-10" vertex="1"><mxGeometry y="78" width="560" height="26" as="geometry"/></mxCell><mxCell id="oNbJA-6rz5GhmISG-e36-39" value="+ ENTITY_THREAD: int" style="text;strokeColor=none;fillColor=none;align=left;verticalAlign=top;spacingLeft=4;spacingRight=4;overflow=hidden;rotatable=0;points=[[0,0.5],[1,0.5]];portConstraint=eastwest;fontStyle=4" parent="oNbJA-6rz5GhmISG-e36-10" vertex="1"><mxGeometry y="104" width="560" height="26" as="geometry"/></mxCell><mxCell id="oNbJA-6rz5GhmISG-e36-40" value="+ ENTITY_RISPOSTA: int" style="text;strokeColor=none;fillColor=none;align=left;verticalAlign=top;spacingLeft=4;spacingRight=4;overflow=hidden;rotatable=0;points=[[0,0.5],[1,0.5]];portConstraint=eastwest;fontStyle=4" parent="oNbJA-6rz5GhmISG-e36-10" vertex="1"><mxGeometry y="130" width="560" height="26" as="geometry"/></mxCell><mxCell id="oNbJA-6rz5GhmISG-e36-37" value="+ ENTITY_VALUTAZIONE: int" style="text;strokeColor=none;fillColor=none;align=left;verticalAlign=top;spacingLeft=4;spacingRight=4;overflow=hidden;rotatable=0;points=[[0,0.5],[1,0.5]];portConstraint=eastwest;fontStyle=4" parent="oNbJA-6rz5GhmISG-e36-10" vertex="1"><mxGeometry y="156" width="560" height="26" as="geometry"/></mxCell><mxCell id="oNbJA-6rz5GhmISG-e36-41" value="+ ENTITY_CATEGORIA: int" style="text;strokeColor=none;fillColor=none;align=left;verticalAlign=top;spacingLeft=4;spacingRight=4;overflow=hidden;rotatable=0;points=[[0,0.5],[1,0.5]];portConstraint=eastwest;fontStyle=4" parent="oNbJA-6rz5GhmISG-e36-10" vertex="1"><mxGeometry y="182" width="560" height="26" as="geometry"/></mxCell><mxCell id="oNbJA-6rz5GhmISG-e36-42" value="+ ENTITY_MESSAGGIO: int" style="text;strokeColor=none;fillColor=none;align=left;verticalAlign=top;spacingLeft=4;spacingRight=4;overflow=hidden;rotatable=0;points=[[0,0.5],[1,0.5]];portConstraint=eastwest;fontStyle=4" parent="oNbJA-6rz5GhmISG-e36-10" vertex="1"><mxGeometry y="208" width="560" height="26" as="geometry"/></mxCell><mxCell id="oNbJA-6rz5GhmISG-e36-43" value="+ PROPERTY_DEFAULT: int" style="text;strokeColor=none;fillColor=none;align=left;verticalAlign=top;spacingLeft=4;spacingRight=4;overflow=hidden;rotatable=0;points=[[0,0.5],[1,0.5]];portConstraint=eastwest;fontStyle=4" parent="oNbJA-6rz5GhmISG-e36-10" vertex="1"><mxGeometry y="234" width="560" height="26" as="geometry"/></mxCell><mxCell id="oNbJA-6rz5GhmISG-e36-44" value="+ PROPERTY_BY_CATEGORIA: int" style="text;strokeColor=none;fillColor=none;align=left;verticalAlign=top;spacingLeft=4;spacingRight=4;overflow=hidden;rotatable=0;points=[[0,0.5],[1,0.5]];portConstraint=eastwest;fontStyle=4" parent="oNbJA-6rz5GhmISG-e36-10" vertex="1"><mxGeometry y="260" width="560" height="26" as="geometry"/></mxCell><mxCell id="oNbJA-6rz5GhmISG-e36-47" value="+ PROPERTY_BY_THREAD: int" style="text;strokeColor=none;fillColor=none;align=left;verticalAlign=top;spacingLeft=4;spacingRight=4;overflow=hidden;rotatable=0;points=[[0,0.5],[1,0.5]];portConstraint=eastwest;fontStyle=4" parent="oNbJA-6rz5GhmISG-e36-10" vertex="1"><mxGeometry y="286" width="560" height="26" as="geometry"/></mxCell><mxCell id="oNbJA-6rz5GhmISG-e36-45" value="+ PROPERTY_PIU_DISCUSSO_CATEGORIA: int" style="text;strokeColor=#b85450;fillColor=#f8cecc;align=left;verticalAlign=top;spacingLeft=4;spacingRight=4;overflow=hidden;rotatable=0;points=[[0,0.5],[1,0.5]];portConstraint=eastwest;fontStyle=4" parent="oNbJA-6rz5GhmISG-e36-10" vertex="1"><mxGeometry y="312" width="560" height="26" as="geometry"/></mxCell><mxCell id="oNbJA-6rz5GhmISG-e36-46" value="+ PROPERTY_VALUTAZIONE_MAGGIORE_CATEGORIA: int" style="text;strokeColor=#b85450;fillColor=#f8cecc;align=left;verticalAlign=top;spacingLeft=4;spacingRight=4;overflow=hidden;rotatable=0;points=[[0,0.5],[1,0.5]];portConstraint=eastwest;fontStyle=4" parent="oNbJA-6rz5GhmISG-e36-10" vertex="1"><mxGeometry y="338" width="560" height="26" as="geometry"/></mxCell><mxCell id="oNbJA-6rz5GhmISG-e36-49" value="+ SEARCH_TYPE_TITOLO: int" style="text;strokeColor=none;fillColor=none;align=left;verticalAlign=top;spacingLeft=4;spacingRight=4;overflow=hidden;rotatable=0;points=[[0,0.5],[1,0.5]];portConstraint=eastwest;fontStyle=4" parent="oNbJA-6rz5GhmISG-e36-10" vertex="1"><mxGeometry y="364" width="560" height="26" as="geometry"/></mxCell><mxCell id="oNbJA-6rz5GhmISG-e36-48" value="+ SEARCH_TYPE_TITOLO_CATEGORIE: int" style="text;strokeColor=none;fillColor=none;align=left;verticalAlign=top;spacingLeft=4;spacingRight=4;overflow=hidden;rotatable=0;points=[[0,0.5],[1,0.5]];portConstraint=eastwest;fontStyle=4" parent="oNbJA-6rz5GhmISG-e36-10" vertex="1"><mxGeometry y="390" width="560" height="26" as="geometry"/></mxCell><mxCell id="EyU5-lKUVy_SWzt8NgNW-1" value="- instance: ?FPersistentManager" style="text;strokeColor=none;fillColor=none;align=left;verticalAlign=top;spacingLeft=4;spacingRight=4;overflow=hidden;rotatable=0;points=[[0,0.5],[1,0.5]];portConstraint=eastwest;fontStyle=4" parent="oNbJA-6rz5GhmISG-e36-10" vertex="1"><mxGeometry y="416" width="560" height="26" as="geometry"/></mxCell><mxCell id="oNbJA-6rz5GhmISG-e36-16" value="" style="line;strokeWidth=1;fillColor=none;align=left;verticalAlign=middle;spacingTop=-1;spacingLeft=3;spacingRight=3;rotatable=0;labelPosition=right;points=[];portConstraint=eastwest;" parent="oNbJA-6rz5GhmISG-e36-10" vertex="1"><mxGeometry y="442" width="560" height="8" as="geometry"/></mxCell><mxCell id="EyU5-lKUVy_SWzt8NgNW-2" value="- __construct()" style="text;strokeColor=none;fillColor=none;align=left;verticalAlign=top;spacingLeft=4;spacingRight=4;overflow=hidden;rotatable=0;points=[[0,0.5],[1,0.5]];portConstraint=eastwest;" parent="oNbJA-6rz5GhmISG-e36-10" vertex="1"><mxGeometry y="450" width="560" height="26" as="geometry"/></mxCell><mxCell id="EyU5-lKUVy_SWzt8NgNW-3" value="+ getInstance(): FPersistenManager" style="text;strokeColor=none;fillColor=none;align=left;verticalAlign=top;spacingLeft=4;spacingRight=4;overflow=hidden;rotatable=0;points=[[0,0.5],[1,0.5]];portConstraint=eastwest;fontStyle=4" parent="oNbJA-6rz5GhmISG-e36-10" vertex="1"><mxGeometry y="476" width="560" height="26" as="geometry"/></mxCell><mxCell id="oNbJA-6rz5GhmISG-e36-18" value="+ load(int entityType, int property, int id): ?object" style="text;strokeColor=none;fillColor=none;align=left;verticalAlign=top;spacingLeft=4;spacingRight=4;overflow=hidden;rotatable=0;points=[[0,0.5],[1,0.5]];portConstraint=eastwest;" parent="oNbJA-6rz5GhmISG-e36-10" vertex="1"><mxGeometry y="502" width="560" height="26" as="geometry"/></mxCell><mxCell id="oNbJA-6rz5GhmISG-e36-19" value="+ loadUserByEmail(string email): ?EUser" style="text;strokeColor=none;fillColor=none;align=left;verticalAlign=top;spacingLeft=4;spacingRight=4;overflow=hidden;rotatable=0;points=[[0,0.5],[1,0.5]];portConstraint=eastwest;" parent="oNbJA-6rz5GhmISG-e36-10" vertex="1"><mxGeometry y="528" width="560" height="26" as="geometry"/></mxCell><mxCell id="oNbJA-6rz5GhmISG-e36-29" value="+ update(int entityType object entity): bool" style="text;strokeColor=none;fillColor=none;align=left;verticalAlign=top;spacingLeft=4;spacingRight=4;overflow=hidden;rotatable=0;points=[[0,0.5],[1,0.5]];portConstraint=eastwest;" parent="oNbJA-6rz5GhmISG-e36-10" vertex="1"><mxGeometry y="554" width="560" height="26" as="geometry"/></mxCell><mxCell id="oNbJA-6rz5GhmISG-e36-30" value="+ updateModeratoreCategoria(ECategoria categoria, EModeratore moderatore): bool" style="text;strokeColor=none;fillColor=none;align=left;verticalAlign=top;spacingLeft=4;spacingRight=4;overflow=hidden;rotatable=0;points=[[0,0.5],[1,0.5]];portConstraint=eastwest;" parent="oNbJA-6rz5GhmISG-e36-10" vertex="1"><mxGeometry y="580" width="560" height="26" as="geometry"/></mxCell><mxCell id="sAUMDpPgHHQ6I5a3Jarb-9" value="+ updateValutazione(EValutazione valutazione, int tipologiaValutazione, EUser user): bool" style="text;strokeColor=#82b366;fillColor=#d5e8d4;align=left;verticalAlign=top;spacingLeft=4;spacingRight=4;overflow=hidden;rotatable=0;points=[[0,0.5],[1,0.5]];portConstraint=eastwest;" parent="oNbJA-6rz5GhmISG-e36-10" vertex="1"><mxGeometry y="606" width="560" height="26" as="geometry"/></mxCell><mxCell id="oNbJA-6rz5GhmISG-e36-27" value="+ store(int entityType, object entity): bool" style="text;strokeColor=none;fillColor=none;align=left;verticalAlign=top;spacingLeft=4;spacingRight=4;overflow=hidden;rotatable=0;points=[[0,0.5],[1,0.5]];portConstraint=eastwest;" parent="oNbJA-6rz5GhmISG-e36-10" vertex="1"><mxGeometry y="632" width="560" height="26" as="geometry"/></mxCell><mxCell id="oNbJA-6rz5GhmISG-e36-28" value="+ storeRispostaThread(ERisposta risposta, int threadID): bool" style="text;strokeColor=none;fillColor=none;align=left;verticalAlign=top;spacingLeft=4;spacingRight=4;overflow=hidden;rotatable=0;points=[[0,0.5],[1,0.5]];portConstraint=eastwest;" parent="oNbJA-6rz5GhmISG-e36-10" vertex="1"><mxGeometry y="658" width="560" height="26" as="geometry"/></mxCell><mxCell id="oNbJA-6rz5GhmISG-e36-31" value="+ delete(int entityType, int id): bool" style="text;strokeColor=none;fillColor=none;align=left;verticalAlign=top;spacingLeft=4;spacingRight=4;overflow=hidden;rotatable=0;points=[[0,0.5],[1,0.5]];portConstraint=eastwest;" parent="oNbJA-6rz5GhmISG-e36-10" vertex="1"><mxGeometry y="684" width="560" height="26" as="geometry"/></mxCell><mxCell id="oNbJA-6rz5GhmISG-e36-26" value="+ loadEntities(int entityType, int property, ?int id, int rigaPartenza, int numeroRighe): ?array" style="text;strokeColor=none;fillColor=none;align=left;verticalAlign=top;spacingLeft=4;spacingRight=4;overflow=hidden;rotatable=0;points=[[0,0.5],[1,0.5]];portConstraint=eastwest;" parent="oNbJA-6rz5GhmISG-e36-10" vertex="1"><mxGeometry y="710" width="560" height="26" as="geometry"/></mxCell><mxCell id="kV81ZuZwwmIHR5wYsCQz-1" value="+ loadAllCategorie(): ?array" style="text;strokeColor=#82b366;fillColor=#d5e8d4;align=left;verticalAlign=top;spacingLeft=4;spacingRight=4;overflow=hidden;rotatable=0;points=[[0,0.5],[1,0.5]];portConstraint=eastwest;" parent="oNbJA-6rz5GhmISG-e36-10" vertex="1"><mxGeometry y="736" width="560" height="26" as="geometry"/></mxCell><mxCell id="sAUMDpPgHHQ6I5a3Jarb-6" value="+ loadThreadsPiuDisucssi(int numeroThreads): ?array" style="text;strokeColor=#82b366;fillColor=#d5e8d4;align=left;verticalAlign=top;spacingLeft=4;spacingRight=4;overflow=hidden;rotatable=0;points=[[0,0.5],[1,0.5]];portConstraint=eastwest;" parent="oNbJA-6rz5GhmISG-e36-10" vertex="1"><mxGeometry y="762" width="560" height="26" as="geometry"/></mxCell><mxCell id="sAUMDpPgHHQ6I5a3Jarb-7" value="+ loadThreadsValutazionePiuAlta(int numeroThreads): ?array" style="text;strokeColor=#82b366;fillColor=#d5e8d4;align=left;verticalAlign=top;spacingLeft=4;spacingRight=4;overflow=hidden;rotatable=0;points=[[0,0.5],[1,0.5]];portConstraint=eastwest;" parent="oNbJA-6rz5GhmISG-e36-10" vertex="1"><mxGeometry y="788" width="560" height="26" as="geometry"/></mxCell><mxCell id="sAUMDpPgHHQ6I5a3Jarb-8" value="+ loadUltimiMessaggi(): ?array" style="text;strokeColor=#82b366;fillColor=#d5e8d4;align=left;verticalAlign=top;spacingLeft=4;spacingRight=4;overflow=hidden;rotatable=0;points=[[0,0.5],[1,0.5]];portConstraint=eastwest;" parent="oNbJA-6rz5GhmISG-e36-10" vertex="1"><mxGeometry y="814" width="560" height="26" as="geometry"/></mxCell><mxCell id="oNbJA-6rz5GhmISG-e36-32" value="+ existsUserByEmail(string email): ?bool" style="text;strokeColor=none;fillColor=none;align=left;verticalAlign=top;spacingLeft=4;spacingRight=4;overflow=hidden;rotatable=0;points=[[0,0.5],[1,0.5]];portConstraint=eastwest;" parent="oNbJA-6rz5GhmISG-e36-10" vertex="1"><mxGeometry y="840" width="560" height="26" as="geometry"/></mxCell><mxCell id="oNbJA-6rz5GhmISG-e36-33" value="+ isA(int entityType, int id): ?bool" style="text;strokeColor=none;fillColor=none;align=left;verticalAlign=top;spacingLeft=4;spacingRight=4;overflow=hidden;rotatable=0;points=[[0,0.5],[1,0.5]];portConstraint=eastwest;" parent="oNbJA-6rz5GhmISG-e36-10" vertex="1"><mxGeometry y="866" width="560" height="26" as="geometry"/></mxCell><mxCell id="oNbJA-6rz5GhmISG-e36-34" value="+ ricercaThreads(int searchType, string titolo, ?array ids, int rigaPartenza, int numeroRighe): ?array" style="text;strokeColor=none;fillColor=none;align=left;verticalAlign=top;spacingLeft=4;spacingRight=4;overflow=hidden;rotatable=0;points=[[0,0.5],[1,0.5]];portConstraint=eastwest;" parent="oNbJA-6rz5GhmISG-e36-10" vertex="1"><mxGeometry y="892" width="560" height="26" as="geometry"/></mxCell><mxCell id="oNbJA-6rz5GhmISG-e36-35" value="+ rimuoviModeratoreCategoria(int categoriaID, EModeratore moderatore): bool" style="text;strokeColor=none;fillColor=none;align=left;verticalAlign=top;spacingLeft=4;spacingRight=4;overflow=hidden;rotatable=0;points=[[0,0.5],[1,0.5]];portConstraint=eastwest;" parent="oNbJA-6rz5GhmISG-e36-10" vertex="1"><mxGeometry y="918" width="560" height="26" as="geometry"/></mxCell><mxCell id="sAUMDpPgHHQ6I5a3Jarb-5" value="+ contaEntities(int $entityType, int property, ?int id): ?int" style="text;strokeColor=#82b366;fillColor=#d5e8d4;align=left;verticalAlign=top;spacingLeft=4;spacingRight=4;overflow=hidden;rotatable=0;points=[[0,0.5],[1,0.5]];portConstraint=eastwest;" parent="oNbJA-6rz5GhmISG-e36-10" vertex="1"><mxGeometry y="944" width="560" height="26" as="geometry"/></mxCell><mxCell id="oNbJA-6rz5GhmISG-e36-51" value="FUser" style="swimlane;fontStyle=1;align=center;verticalAlign=top;childLayout=stackLayout;horizontal=1;startSize=26;horizontalStack=0;resizeParent=1;resizeParentMax=0;resizeLast=0;collapsible=1;marginBottom=0;" parent="1" vertex="1"><mxGeometry x="10" y="1217" width="410" height="606" as="geometry"><mxRectangle x="80" y="240" width="70" height="26" as="alternateBounds"/></mxGeometry></mxCell><mxCell id="oNbJA-6rz5GhmISG-e36-130" value="- instance: ?FUser" style="text;strokeColor=none;fillColor=none;align=left;verticalAlign=top;spacingLeft=4;spacingRight=4;overflow=hidden;rotatable=0;points=[[0,0.5],[1,0.5]];portConstraint=eastwest;fontStyle=4" parent="oNbJA-6rz5GhmISG-e36-51" vertex="1"><mxGeometry y="26" width="410" height="26" as="geometry"/></mxCell><mxCell id="oNbJA-6rz5GhmISG-e36-52" value="" style="line;strokeWidth=1;fillColor=none;align=left;verticalAlign=middle;spacingTop=-1;spacingLeft=3;spacingRight=3;rotatable=0;labelPosition=right;points=[];portConstraint=eastwest;" parent="oNbJA-6rz5GhmISG-e36-51" vertex="1"><mxGeometry y="52" width="410" height="8" as="geometry"/></mxCell><mxCell id="oNbJA-6rz5GhmISG-e36-136" value="- __construct()" style="text;strokeColor=none;fillColor=none;align=left;verticalAlign=top;spacingLeft=4;spacingRight=4;overflow=hidden;rotatable=0;points=[[0,0.5],[1,0.5]];portConstraint=eastwest;" parent="oNbJA-6rz5GhmISG-e36-51" vertex="1"><mxGeometry y="60" width="410" height="26" as="geometry"/></mxCell><mxCell id="oNbJA-6rz5GhmISG-e36-137" value="+ getInstance(): FUser" style="text;strokeColor=none;fillColor=none;align=left;verticalAlign=top;spacingLeft=4;spacingRight=4;overflow=hidden;rotatable=0;points=[[0,0.5],[1,0.5]];portConstraint=eastwest;fontStyle=4" parent="oNbJA-6rz5GhmISG-e36-51" vertex="1"><mxGeometry y="86" width="410" height="26" as="geometry"/></mxCell><mxCell id="oNbJA-6rz5GhmISG-e36-57" value="+ load(int userID): ?EUser" style="text;strokeColor=none;fillColor=none;align=left;verticalAlign=top;spacingLeft=4;spacingRight=4;overflow=hidden;rotatable=0;points=[[0,0.5],[1,0.5]];portConstraint=eastwest;" parent="oNbJA-6rz5GhmISG-e36-51" vertex="1"><mxGeometry y="112" width="410" height="26" as="geometry"/></mxCell><mxCell id="TIQraNKL7QQaXJ7wX4ax-2" value="- loadFotoProfilo(int fotoID): ?array" style="text;strokeColor=none;fillColor=none;align=left;verticalAlign=top;spacingLeft=4;spacingRight=4;overflow=hidden;rotatable=0;points=[[0,0.5],[1,0.5]];portConstraint=eastwest;" parent="oNbJA-6rz5GhmISG-e36-51" vertex="1"><mxGeometry y="138" width="410" height="26" as="geometry"/></mxCell><mxCell id="oNbJA-6rz5GhmISG-e36-59" value="+ loadModeratore(int moderatoreID): ?EModeratore" style="text;strokeColor=none;fillColor=none;align=left;verticalAlign=top;spacingLeft=4;spacingRight=4;overflow=hidden;rotatable=0;points=[[0,0.5],[1,0.5]];portConstraint=eastwest;" parent="oNbJA-6rz5GhmISG-e36-51" vertex="1"><mxGeometry y="164" width="410" height="26" as="geometry"/></mxCell><mxCell id="oNbJA-6rz5GhmISG-e36-61" value="+ loadAdmin(int adminID): ?EAdmin" style="text;strokeColor=none;fillColor=none;align=left;verticalAlign=top;spacingLeft=4;spacingRight=4;overflow=hidden;rotatable=0;points=[[0,0.5],[1,0.5]];portConstraint=eastwest;" parent="oNbJA-6rz5GhmISG-e36-51" vertex="1"><mxGeometry y="190" width="410" height="26" as="geometry"/></mxCell><mxCell id="oNbJA-6rz5GhmISG-e36-58" value="+ loadByEmail(string email): ?EUser" style="text;strokeColor=none;fillColor=none;align=left;verticalAlign=top;spacingLeft=4;spacingRight=4;overflow=hidden;rotatable=0;points=[[0,0.5],[1,0.5]];portConstraint=eastwest;" parent="oNbJA-6rz5GhmISG-e36-51" vertex="1"><mxGeometry y="216" width="410" height="26" as="geometry"/></mxCell><mxCell id="oNbJA-6rz5GhmISG-e36-60" value="+ loadModeratoreCategoria(int categoriaID): ?EModeratore" style="text;strokeColor=none;fillColor=none;align=left;verticalAlign=top;spacingLeft=4;spacingRight=4;overflow=hidden;rotatable=0;points=[[0,0.5],[1,0.5]];portConstraint=eastwest;" parent="oNbJA-6rz5GhmISG-e36-51" vertex="1"><mxGeometry y="242" width="410" height="26" as="geometry"/></mxCell><mxCell id="oNbJA-6rz5GhmISG-e36-63" value="+ update(EUser u): bool" style="text;strokeColor=none;fillColor=none;align=left;verticalAlign=top;spacingLeft=4;spacingRight=4;overflow=hidden;rotatable=0;points=[[0,0.5],[1,0.5]];portConstraint=eastwest;" parent="oNbJA-6rz5GhmISG-e36-51" vertex="1"><mxGeometry y="268" width="410" height="26" as="geometry"/></mxCell><mxCell id="oNbJA-6rz5GhmISG-e36-66" value="+ updateToModeratore(PDO pdo, EModeratore m): bool" style="text;strokeColor=none;fillColor=none;align=left;verticalAlign=top;spacingLeft=4;spacingRight=4;overflow=hidden;rotatable=0;points=[[0,0.5],[1,0.5]];portConstraint=eastwest;" parent="oNbJA-6rz5GhmISG-e36-51" vertex="1"><mxGeometry y="294" width="410" height="26" as="geometry"/></mxCell><mxCell id="oNbJA-6rz5GhmISG-e36-64" value="+ updateToUser(PDO pdo EModeratore m): bool" style="text;strokeColor=none;fillColor=none;align=left;verticalAlign=top;spacingLeft=4;spacingRight=4;overflow=hidden;rotatable=0;points=[[0,0.5],[1,0.5]];portConstraint=eastwest;" parent="oNbJA-6rz5GhmISG-e36-51" vertex="1"><mxGeometry y="320" width="410" height="26" as="geometry"/></mxCell><mxCell id="oNbJA-6rz5GhmISG-e36-62" value="+ store(EUser u): bool" style="text;strokeColor=none;fillColor=none;align=left;verticalAlign=top;spacingLeft=4;spacingRight=4;overflow=hidden;rotatable=0;points=[[0,0.5],[1,0.5]];portConstraint=eastwest;" parent="oNbJA-6rz5GhmISG-e36-51" vertex="1"><mxGeometry y="346" width="410" height="26" as="geometry"/></mxCell><mxCell id="z6L5AeI7DmAnvXT_ULEG-1" value="- storeFotoProfilo(PDO pdo, array fotoProfilo): bool" style="text;strokeColor=none;fillColor=none;align=left;verticalAlign=top;spacingLeft=4;spacingRight=4;overflow=hidden;rotatable=0;points=[[0,0.5],[1,0.5]];portConstraint=eastwest;" parent="oNbJA-6rz5GhmISG-e36-51" vertex="1"><mxGeometry y="372" width="410" height="26" as="geometry"/></mxCell><mxCell id="oNbJA-6rz5GhmISG-e36-67" value="+ delete(int userID): bool" style="text;strokeColor=none;fillColor=none;align=left;verticalAlign=top;spacingLeft=4;spacingRight=4;overflow=hidden;rotatable=0;points=[[0,0.5],[1,0.5]];portConstraint=eastwest;" parent="oNbJA-6rz5GhmISG-e36-51" vertex="1"><mxGeometry y="398" width="410" height="26" as="geometry"/></mxCell><mxCell id="z6L5AeI7DmAnvXT_ULEG-2" value="- deleteFotoProfilo(PDO pdo, int fotoID): bool" style="text;strokeColor=none;fillColor=none;align=left;verticalAlign=top;spacingLeft=4;spacingRight=4;overflow=hidden;rotatable=0;points=[[0,0.5],[1,0.5]];portConstraint=eastwest;" parent="oNbJA-6rz5GhmISG-e36-51" vertex="1"><mxGeometry y="424" width="410" height="26" as="geometry"/></mxCell><mxCell id="oNbJA-6rz5GhmISG-e36-54" value="+ existsByEmail(string email): ?bool" style="text;strokeColor=none;fillColor=none;align=left;verticalAlign=top;spacingLeft=4;spacingRight=4;overflow=hidden;rotatable=0;points=[[0,0.5],[1,0.5]];portConstraint=eastwest;" parent="oNbJA-6rz5GhmISG-e36-51" vertex="1"><mxGeometry y="450" width="410" height="26" as="geometry"/></mxCell><mxCell id="oNbJA-6rz5GhmISG-e36-55" value="+ isModeratore(int userID): ?bool" style="text;strokeColor=none;fillColor=none;align=left;verticalAlign=top;spacingLeft=4;spacingRight=4;overflow=hidden;rotatable=0;points=[[0,0.5],[1,0.5]];portConstraint=eastwest;" parent="oNbJA-6rz5GhmISG-e36-51" vertex="1"><mxGeometry y="476" width="410" height="26" as="geometry"/></mxCell><mxCell id="oNbJA-6rz5GhmISG-e36-56" value="+ isAdmin(int userID): ?bool" style="text;strokeColor=none;fillColor=none;align=left;verticalAlign=top;spacingLeft=4;spacingRight=4;overflow=hidden;rotatable=0;points=[[0,0.5],[1,0.5]];portConstraint=eastwest;" parent="oNbJA-6rz5GhmISG-e36-51" vertex="1"><mxGeometry y="502" width="410" height="26" as="geometry"/></mxCell><mxCell id="oNbJA-6rz5GhmISG-e36-68" value="+ loadAll(int rigaPartenza, int numeroRighe): ?array" style="text;strokeColor=none;fillColor=none;align=left;verticalAlign=top;spacingLeft=4;spacingRight=4;overflow=hidden;rotatable=0;points=[[0,0.5],[1,0.5]];portConstraint=eastwest;" parent="oNbJA-6rz5GhmISG-e36-51" vertex="1"><mxGeometry y="528" width="410" height="26" as="geometry"/></mxCell><mxCell id="oNbJA-6rz5GhmISG-e36-69" value="+ loadAllModeratori(int rigaPartenza, int numeroRighe): ?array" style="text;strokeColor=none;fillColor=none;align=left;verticalAlign=top;spacingLeft=4;spacingRight=4;overflow=hidden;rotatable=0;points=[[0,0.5],[1,0.5]];portConstraint=eastwest;" parent="oNbJA-6rz5GhmISG-e36-51" vertex="1"><mxGeometry y="554" width="410" height="26" as="geometry"/></mxCell><mxCell id="sAUMDpPgHHQ6I5a3Jarb-11" value="+ conta(): ?int" style="text;strokeColor=#82b366;fillColor=#d5e8d4;align=left;verticalAlign=top;spacingLeft=4;spacingRight=4;overflow=hidden;rotatable=0;points=[[0,0.5],[1,0.5]];portConstraint=eastwest;" parent="oNbJA-6rz5GhmISG-e36-51" vertex="1"><mxGeometry y="580" width="410" height="26" as="geometry"/></mxCell><mxCell id="oNbJA-6rz5GhmISG-e36-70" value="FMessaggio" style="swimlane;fontStyle=1;align=center;verticalAlign=top;childLayout=stackLayout;horizontal=1;startSize=26;horizontalStack=0;resizeParent=1;resizeParentMax=0;resizeLast=0;collapsible=1;marginBottom=0;" parent="1" vertex="1"><mxGeometry x="450" y="1000" width="320" height="294" as="geometry"><mxRectangle x="520" y="10" width="100" height="26" as="alternateBounds"/></mxGeometry></mxCell><mxCell id="oNbJA-6rz5GhmISG-e36-131" value="- instance: ?FMessaggio" style="text;strokeColor=none;fillColor=none;align=left;verticalAlign=top;spacingLeft=4;spacingRight=4;overflow=hidden;rotatable=0;points=[[0,0.5],[1,0.5]];portConstraint=eastwest;fontStyle=4" parent="oNbJA-6rz5GhmISG-e36-70" vertex="1"><mxGeometry y="26" width="320" height="26" as="geometry"/></mxCell><mxCell id="oNbJA-6rz5GhmISG-e36-71" value="" style="line;strokeWidth=1;fillColor=none;align=left;verticalAlign=middle;spacingTop=-1;spacingLeft=3;spacingRight=3;rotatable=0;labelPosition=right;points=[];portConstraint=eastwest;" parent="oNbJA-6rz5GhmISG-e36-70" vertex="1"><mxGeometry y="52" width="320" height="8" as="geometry"/></mxCell><mxCell id="oNbJA-6rz5GhmISG-e36-140" value="- __construct()" style="text;strokeColor=none;fillColor=none;align=left;verticalAlign=top;spacingLeft=4;spacingRight=4;overflow=hidden;rotatable=0;points=[[0,0.5],[1,0.5]];portConstraint=eastwest;" parent="oNbJA-6rz5GhmISG-e36-70" vertex="1"><mxGeometry y="60" width="320" height="26" as="geometry"/></mxCell><mxCell id="oNbJA-6rz5GhmISG-e36-141" value="+ getInstance(): FMessaggio" style="text;strokeColor=none;fillColor=none;align=left;verticalAlign=top;spacingLeft=4;spacingRight=4;overflow=hidden;rotatable=0;points=[[0,0.5],[1,0.5]];portConstraint=eastwest;fontStyle=4" parent="oNbJA-6rz5GhmISG-e36-70" vertex="1"><mxGeometry y="86" width="320" height="26" as="geometry"/></mxCell><mxCell id="oNbJA-6rz5GhmISG-e36-72" value="+ load(int messaggioID): ?EMessaggio" style="text;strokeColor=none;fillColor=none;align=left;verticalAlign=top;spacingLeft=4;spacingRight=4;overflow=hidden;rotatable=0;points=[[0,0.5],[1,0.5]];portConstraint=eastwest;" parent="oNbJA-6rz5GhmISG-e36-70" vertex="1"><mxGeometry y="112" width="320" height="26" as="geometry"/></mxCell><mxCell id="oNbJA-6rz5GhmISG-e36-75" value="+ updateUserID(PDO pdo, int userID): bool" style="text;strokeColor=none;fillColor=none;align=left;verticalAlign=top;spacingLeft=4;spacingRight=4;overflow=hidden;rotatable=0;points=[[0,0.5],[1,0.5]];portConstraint=eastwest;" parent="oNbJA-6rz5GhmISG-e36-70" vertex="1"><mxGeometry y="138" width="320" height="26" as="geometry"/></mxCell><mxCell id="oNbJA-6rz5GhmISG-e36-76" value="+ store(EMessaggio messaggio): bool" style="text;strokeColor=none;fillColor=none;align=left;verticalAlign=top;spacingLeft=4;spacingRight=4;overflow=hidden;rotatable=0;points=[[0,0.5],[1,0.5]];portConstraint=eastwest;" parent="oNbJA-6rz5GhmISG-e36-70" vertex="1"><mxGeometry y="164" width="320" height="26" as="geometry"/></mxCell><mxCell id="oNbJA-6rz5GhmISG-e36-77" value="+ delete(int messID): bool" style="text;strokeColor=none;fillColor=none;align=left;verticalAlign=top;spacingLeft=4;spacingRight=4;overflow=hidden;rotatable=0;points=[[0,0.5],[1,0.5]];portConstraint=eastwest;" parent="oNbJA-6rz5GhmISG-e36-70" vertex="1"><mxGeometry y="190" width="320" height="26" as="geometry"/></mxCell><mxCell id="2" value="- exists(int messID): bool" style="text;strokeColor=none;fillColor=none;align=left;verticalAlign=top;spacingLeft=4;spacingRight=4;overflow=hidden;rotatable=0;points=[[0,0.5],[1,0.5]];portConstraint=eastwest;" parent="oNbJA-6rz5GhmISG-e36-70" vertex="1"><mxGeometry y="216" width="320" height="26" as="geometry"/></mxCell><mxCell id="oNbJA-6rz5GhmISG-e36-73" value="+ loadAll(int rigaPartenza, int numeroRighe): ?array" style="text;strokeColor=none;fillColor=none;align=left;verticalAlign=top;spacingLeft=4;spacingRight=4;overflow=hidden;rotatable=0;points=[[0,0.5],[1,0.5]];portConstraint=eastwest;" parent="oNbJA-6rz5GhmISG-e36-70" vertex="1"><mxGeometry y="242" width="320" height="26" as="geometry"/></mxCell><mxCell id="sAUMDpPgHHQ6I5a3Jarb-4" value="+ loadMessaggiUltime24Ore(): ?array" style="text;strokeColor=#82b366;fillColor=#d5e8d4;align=left;verticalAlign=top;spacingLeft=4;spacingRight=4;overflow=hidden;rotatable=0;points=[[0,0.5],[1,0.5]];portConstraint=eastwest;" parent="oNbJA-6rz5GhmISG-e36-70" vertex="1"><mxGeometry y="268" width="320" height="26" as="geometry"/></mxCell><mxCell id="oNbJA-6rz5GhmISG-e36-78" value="FThread" style="swimlane;fontStyle=1;align=center;verticalAlign=top;childLayout=stackLayout;horizontal=1;startSize=26;horizontalStack=0;resizeParent=1;resizeParentMax=0;resizeLast=0;collapsible=1;marginBottom=0;" parent="1" vertex="1"><mxGeometry x="440" y="1350" width="560" height="450" as="geometry"><mxRectangle x="435" y="204" width="80" height="26" as="alternateBounds"/></mxGeometry></mxCell><mxCell id="oNbJA-6rz5GhmISG-e36-132" value="- instance: ?FThread" style="text;strokeColor=none;fillColor=none;align=left;verticalAlign=top;spacingLeft=4;spacingRight=4;overflow=hidden;rotatable=0;points=[[0,0.5],[1,0.5]];portConstraint=eastwest;fontStyle=4" parent="oNbJA-6rz5GhmISG-e36-78" vertex="1"><mxGeometry y="26" width="560" height="26" as="geometry"/></mxCell><mxCell id="oNbJA-6rz5GhmISG-e36-79" value="" style="line;strokeWidth=1;fillColor=none;align=left;verticalAlign=middle;spacingTop=-1;spacingLeft=3;spacingRight=3;rotatable=0;labelPosition=right;points=[];portConstraint=eastwest;" parent="oNbJA-6rz5GhmISG-e36-78" vertex="1"><mxGeometry y="52" width="560" height="8" as="geometry"/></mxCell><mxCell id="oNbJA-6rz5GhmISG-e36-138" value="- __construct()" style="text;strokeColor=none;fillColor=none;align=left;verticalAlign=top;spacingLeft=4;spacingRight=4;overflow=hidden;rotatable=0;points=[[0,0.5],[1,0.5]];portConstraint=eastwest;" parent="oNbJA-6rz5GhmISG-e36-78" vertex="1"><mxGeometry y="60" width="560" height="26" as="geometry"/></mxCell><mxCell id="oNbJA-6rz5GhmISG-e36-139" value="+ getInstance(): FThread" style="text;strokeColor=none;fillColor=none;align=left;verticalAlign=top;spacingLeft=4;spacingRight=4;overflow=hidden;rotatable=0;points=[[0,0.5],[1,0.5]];portConstraint=eastwest;fontStyle=4" parent="oNbJA-6rz5GhmISG-e36-78" vertex="1"><mxGeometry y="86" width="560" height="26" as="geometry"/></mxCell><mxCell id="oNbJA-6rz5GhmISG-e36-80" value="+ load(int threadID): ?EThread  " style="text;strokeColor=none;fillColor=none;align=left;verticalAlign=top;spacingLeft=4;spacingRight=4;overflow=hidden;rotatable=0;points=[[0,0.5],[1,0.5]];portConstraint=eastwest;" parent="oNbJA-6rz5GhmISG-e36-78" vertex="1"><mxGeometry y="112" width="560" height="26" as="geometry"/></mxCell><mxCell id="oNbJA-6rz5GhmISG-e36-85" value="- loadAllegatiByThreadID(int $threadID): ?array" style="text;strokeColor=none;fillColor=none;align=left;verticalAlign=top;spacingLeft=4;spacingRight=4;overflow=hidden;rotatable=0;points=[[0,0.5],[1,0.5]];portConstraint=eastwest;" parent="oNbJA-6rz5GhmISG-e36-78" vertex="1"><mxGeometry y="138" width="560" height="26" as="geometry"/></mxCell><mxCell id="oNbJA-6rz5GhmISG-e36-81" value="+ loadThreadsPiuRisposte(int numeroThreads): ?array" style="text;strokeColor=#82b366;fillColor=#d5e8d4;align=left;verticalAlign=top;spacingLeft=4;spacingRight=4;overflow=hidden;rotatable=0;points=[[0,0.5],[1,0.5]];portConstraint=eastwest;" parent="oNbJA-6rz5GhmISG-e36-78" vertex="1"><mxGeometry y="164" width="560" height="26" as="geometry"/></mxCell><mxCell id="oNbJA-6rz5GhmISG-e36-82" value="+ loadThreadsValutazioneMaggiore(int numeroThreads): ?array" style="text;strokeColor=#82b366;fillColor=#d5e8d4;align=left;verticalAlign=top;spacingLeft=4;spacingRight=4;overflow=hidden;rotatable=0;points=[[0,0.5],[1,0.5]];portConstraint=eastwest;" parent="oNbJA-6rz5GhmISG-e36-78" vertex="1"><mxGeometry y="190" width="560" height="26" as="geometry"/></mxCell><mxCell id="oNbJA-6rz5GhmISG-e36-92" value="+ updateUserID(PDO pdo, int userID): bool" style="text;strokeColor=none;fillColor=none;align=left;verticalAlign=top;spacingLeft=4;spacingRight=4;overflow=hidden;rotatable=0;points=[[0,0.5],[1,0.5]];portConstraint=eastwest;" parent="oNbJA-6rz5GhmISG-e36-78" vertex="1"><mxGeometry y="216" width="560" height="26" as="geometry"/></mxCell><mxCell id="oNbJA-6rz5GhmISG-e36-91" value="+ updateCategoriaID(PDO pdo, int categoriaID): bool" style="text;strokeColor=none;fillColor=none;align=left;verticalAlign=top;spacingLeft=4;spacingRight=4;overflow=hidden;rotatable=0;points=[[0,0.5],[1,0.5]];portConstraint=eastwest;" parent="oNbJA-6rz5GhmISG-e36-78" vertex="1"><mxGeometry y="242" width="560" height="26" as="geometry"/></mxCell><mxCell id="oNbJA-6rz5GhmISG-e36-86" value="+ store(EThread t): bool" style="text;strokeColor=none;fillColor=none;align=left;verticalAlign=top;spacingLeft=4;spacingRight=4;overflow=hidden;rotatable=0;points=[[0,0.5],[1,0.5]];portConstraint=eastwest;" parent="oNbJA-6rz5GhmISG-e36-78" vertex="1"><mxGeometry y="268" width="560" height="26" as="geometry"/></mxCell><mxCell id="oNbJA-6rz5GhmISG-e36-87" value="- storeAllegato(PDO pdo, array allegato, int threadID): bool" style="text;strokeColor=none;fillColor=none;align=left;verticalAlign=top;spacingLeft=4;spacingRight=4;overflow=hidden;rotatable=0;points=[[0,0.5],[1,0.5]];portConstraint=eastwest;" parent="oNbJA-6rz5GhmISG-e36-78" vertex="1"><mxGeometry y="294" width="560" height="26" as="geometry"/></mxCell><mxCell id="oNbJA-6rz5GhmISG-e36-89" value="+ delete(int threadID): bool" style="text;strokeColor=none;fillColor=none;align=left;verticalAlign=top;spacingLeft=4;spacingRight=4;overflow=hidden;rotatable=0;points=[[0,0.5],[1,0.5]];portConstraint=eastwest;" parent="oNbJA-6rz5GhmISG-e36-78" vertex="1"><mxGeometry y="320" width="560" height="26" as="geometry"/></mxCell><mxCell id="oNbJA-6rz5GhmISG-e36-84" value="+ loadThreadsCategoria(int categoriaID, int rigaPartemza, int numeroRighe): ?array" style="text;strokeColor=none;fillColor=none;align=left;verticalAlign=top;spacingLeft=4;spacingRight=4;overflow=hidden;rotatable=0;points=[[0,0.5],[1,0.5]];portConstraint=eastwest;" parent="oNbJA-6rz5GhmISG-e36-78" vertex="1"><mxGeometry y="346" width="560" height="26" as="geometry"/></mxCell><mxCell id="oNbJA-6rz5GhmISG-e36-94" value="+ ricercaPerTitolo(string titolo, int rigaPartenza, int numeroRighe): ?array" style="text;strokeColor=none;fillColor=none;align=left;verticalAlign=top;spacingLeft=4;spacingRight=4;overflow=hidden;rotatable=0;points=[[0,0.5],[1,0.5]];portConstraint=eastwest;" parent="oNbJA-6rz5GhmISG-e36-78" vertex="1"><mxGeometry y="372" width="560" height="26" as="geometry"/></mxCell><mxCell id="oNbJA-6rz5GhmISG-e36-93" value="+ ricercaPerTitoloECategorie(string titolo, array categorieID, int rigaPartenza, int numeroRighe): ?array" style="text;strokeColor=none;fillColor=none;align=left;verticalAlign=top;spacingLeft=4;spacingRight=4;overflow=hidden;rotatable=0;points=[[0,0.5],[1,0.5]];portConstraint=eastwest;" parent="oNbJA-6rz5GhmISG-e36-78" vertex="1"><mxGeometry y="398" width="560" height="26" as="geometry"/></mxCell><mxCell id="sAUMDpPgHHQ6I5a3Jarb-10" value="+ contaThreadsCategoria(int categoriaID): ?int" style="text;strokeColor=#82b366;fillColor=#d5e8d4;align=left;verticalAlign=top;spacingLeft=4;spacingRight=4;overflow=hidden;rotatable=0;points=[[0,0.5],[1,0.5]];portConstraint=eastwest;" parent="oNbJA-6rz5GhmISG-e36-78" vertex="1"><mxGeometry y="424" width="560" height="26" as="geometry"/></mxCell><mxCell id="oNbJA-6rz5GhmISG-e36-95" value="FRisposta" style="swimlane;fontStyle=1;align=center;verticalAlign=top;childLayout=stackLayout;horizontal=1;startSize=26;horizontalStack=0;resizeParent=1;resizeParentMax=0;resizeLast=0;collapsible=1;marginBottom=0;" parent="1" vertex="1"><mxGeometry x="440" y="1880" width="400" height="268" as="geometry"><mxRectangle x="480" y="827" width="90" height="26" as="alternateBounds"/></mxGeometry></mxCell><mxCell id="oNbJA-6rz5GhmISG-e36-134" value="- instance: ?FRisposta" style="text;strokeColor=none;fillColor=none;align=left;verticalAlign=top;spacingLeft=4;spacingRight=4;overflow=hidden;rotatable=0;points=[[0,0.5],[1,0.5]];portConstraint=eastwest;fontStyle=4" parent="oNbJA-6rz5GhmISG-e36-95" vertex="1"><mxGeometry y="26" width="400" height="26" as="geometry"/></mxCell><mxCell id="oNbJA-6rz5GhmISG-e36-96" value="" style="line;strokeWidth=1;fillColor=none;align=left;verticalAlign=middle;spacingTop=-1;spacingLeft=3;spacingRight=3;rotatable=0;labelPosition=right;points=[];portConstraint=eastwest;" parent="oNbJA-6rz5GhmISG-e36-95" vertex="1"><mxGeometry y="52" width="400" height="8" as="geometry"/></mxCell><mxCell id="oNbJA-6rz5GhmISG-e36-142" value="- __construct()" style="text;strokeColor=none;fillColor=none;align=left;verticalAlign=top;spacingLeft=4;spacingRight=4;overflow=hidden;rotatable=0;points=[[0,0.5],[1,0.5]];portConstraint=eastwest;" parent="oNbJA-6rz5GhmISG-e36-95" vertex="1"><mxGeometry y="60" width="400" height="26" as="geometry"/></mxCell><mxCell id="oNbJA-6rz5GhmISG-e36-143" value="+ getInstance(): FRisposta" style="text;strokeColor=none;fillColor=none;align=left;verticalAlign=top;spacingLeft=4;spacingRight=4;overflow=hidden;rotatable=0;points=[[0,0.5],[1,0.5]];portConstraint=eastwest;fontStyle=4" parent="oNbJA-6rz5GhmISG-e36-95" vertex="1"><mxGeometry y="86" width="400" height="26" as="geometry"/></mxCell><mxCell id="oNbJA-6rz5GhmISG-e36-97" value="+ load(int rispostaID): ?ERisposta" style="text;strokeColor=none;fillColor=none;align=left;verticalAlign=top;spacingLeft=4;spacingRight=4;overflow=hidden;rotatable=0;points=[[0,0.5],[1,0.5]];portConstraint=eastwest;" parent="oNbJA-6rz5GhmISG-e36-95" vertex="1"><mxGeometry y="112" width="400" height="26" as="geometry"/></mxCell><mxCell id="oNbJA-6rz5GhmISG-e36-100" value="+ updateUserID(PDO pdo, int userID): bool" style="text;strokeColor=none;fillColor=none;align=left;verticalAlign=top;spacingLeft=4;spacingRight=4;overflow=hidden;rotatable=0;points=[[0,0.5],[1,0.5]];portConstraint=eastwest;" parent="oNbJA-6rz5GhmISG-e36-95" vertex="1"><mxGeometry y="138" width="400" height="26" as="geometry"/></mxCell><mxCell id="oNbJA-6rz5GhmISG-e36-102" value="+ store(ERisposta risposta, int threadID): bool" style="text;strokeColor=none;fillColor=none;align=left;verticalAlign=top;spacingLeft=4;spacingRight=4;overflow=hidden;rotatable=0;points=[[0,0.5],[1,0.5]];portConstraint=eastwest;" parent="oNbJA-6rz5GhmISG-e36-95" vertex="1"><mxGeometry y="164" width="400" height="26" as="geometry"/></mxCell><mxCell id="oNbJA-6rz5GhmISG-e36-103" value="+ delete(int rispostaID): bool" style="text;strokeColor=none;fillColor=none;align=left;verticalAlign=top;spacingLeft=4;spacingRight=4;overflow=hidden;rotatable=0;points=[[0,0.5],[1,0.5]];portConstraint=eastwest;" parent="oNbJA-6rz5GhmISG-e36-95" vertex="1"><mxGeometry y="190" width="400" height="26" as="geometry"/></mxCell><mxCell id="3" value="- exists(int rispostaID): bool" style="text;strokeColor=none;fillColor=none;align=left;verticalAlign=top;spacingLeft=4;spacingRight=4;overflow=hidden;rotatable=0;points=[[0,0.5],[1,0.5]];portConstraint=eastwest;" parent="oNbJA-6rz5GhmISG-e36-95" vertex="1"><mxGeometry y="216" width="400" height="26" as="geometry"/></mxCell><mxCell id="oNbJA-6rz5GhmISG-e36-98" value="+ loadRisposteThread(int threadID): ?array" style="text;strokeColor=none;fillColor=none;align=left;verticalAlign=top;spacingLeft=4;spacingRight=4;overflow=hidden;rotatable=0;points=[[0,0.5],[1,0.5]];portConstraint=eastwest;" parent="oNbJA-6rz5GhmISG-e36-95" vertex="1"><mxGeometry y="242" width="400" height="26" as="geometry"/></mxCell><mxCell id="oNbJA-6rz5GhmISG-e36-105" value="FCategoria" style="swimlane;fontStyle=1;align=center;verticalAlign=top;childLayout=stackLayout;horizontal=1;startSize=26;horizontalStack=0;resizeParent=1;resizeParentMax=0;resizeLast=0;collapsible=1;marginBottom=0;" parent="1" vertex="1"><mxGeometry x="1040" y="1217" width="400" height="424" as="geometry"><mxRectangle x="960" y="250" width="90" height="26" as="alternateBounds"/></mxGeometry></mxCell><mxCell id="oNbJA-6rz5GhmISG-e36-133" value="- instance: ?FCategoria" style="text;strokeColor=none;fillColor=none;align=left;verticalAlign=top;spacingLeft=4;spacingRight=4;overflow=hidden;rotatable=0;points=[[0,0.5],[1,0.5]];portConstraint=eastwest;fontStyle=4" parent="oNbJA-6rz5GhmISG-e36-105" vertex="1"><mxGeometry y="26" width="400" height="26" as="geometry"/></mxCell><mxCell id="oNbJA-6rz5GhmISG-e36-106" value="" style="line;strokeWidth=1;fillColor=none;align=left;verticalAlign=middle;spacingTop=-1;spacingLeft=3;spacingRight=3;rotatable=0;labelPosition=right;points=[];portConstraint=eastwest;" parent="oNbJA-6rz5GhmISG-e36-105" vertex="1"><mxGeometry y="52" width="400" height="8" as="geometry"/></mxCell><mxCell id="oNbJA-6rz5GhmISG-e36-144" value="- __construct()" style="text;strokeColor=none;fillColor=none;align=left;verticalAlign=top;spacingLeft=4;spacingRight=4;overflow=hidden;rotatable=0;points=[[0,0.5],[1,0.5]];portConstraint=eastwest;" parent="oNbJA-6rz5GhmISG-e36-105" vertex="1"><mxGeometry y="60" width="400" height="26" as="geometry"/></mxCell><mxCell id="oNbJA-6rz5GhmISG-e36-145" value="+ getInstance(): FCategoria" style="text;strokeColor=none;fillColor=none;align=left;verticalAlign=top;spacingLeft=4;spacingRight=4;overflow=hidden;rotatable=0;points=[[0,0.5],[1,0.5]];portConstraint=eastwest;fontStyle=4" parent="oNbJA-6rz5GhmISG-e36-105" vertex="1"><mxGeometry y="86" width="400" height="26" as="geometry"/></mxCell><mxCell id="oNbJA-6rz5GhmISG-e36-108" value="+ load(int categoriaID): ?ECategoria" style="text;strokeColor=none;fillColor=none;align=left;verticalAlign=top;spacingLeft=4;spacingRight=4;overflow=hidden;rotatable=0;points=[[0,0.5],[1,0.5]];portConstraint=eastwest;" parent="oNbJA-6rz5GhmISG-e36-105" vertex="1"><mxGeometry y="112" width="400" height="26" as="geometry"/></mxCell><mxCell id="TIQraNKL7QQaXJ7wX4ax-1" value="- loadIcona(int iconaID): ?array" style="text;strokeColor=none;fillColor=none;align=left;verticalAlign=top;spacingLeft=4;spacingRight=4;overflow=hidden;rotatable=0;points=[[0,0.5],[1,0.5]];portConstraint=eastwest;" parent="oNbJA-6rz5GhmISG-e36-105" vertex="1"><mxGeometry y="138" width="400" height="26" as="geometry"/></mxCell><mxCell id="oNbJA-6rz5GhmISG-e36-109" value="+ loadCategoriaThread(int threadID): ?ECategoria" style="text;strokeColor=none;fillColor=none;align=left;verticalAlign=top;spacingLeft=4;spacingRight=4;overflow=hidden;rotatable=0;points=[[0,0.5],[1,0.5]];portConstraint=eastwest;" parent="oNbJA-6rz5GhmISG-e36-105" vertex="1"><mxGeometry y="164" width="400" height="26" as="geometry"/></mxCell><mxCell id="oNbJA-6rz5GhmISG-e36-111" value="+ update(ECategoria categoria, EModeratore moderatore): bool" style="text;strokeColor=none;fillColor=none;align=left;verticalAlign=top;spacingLeft=4;spacingRight=4;overflow=hidden;rotatable=0;points=[[0,0.5],[1,0.5]];portConstraint=eastwest;" parent="oNbJA-6rz5GhmISG-e36-105" vertex="1"><mxGeometry y="190" width="400" height="26" as="geometry"/></mxCell><mxCell id="oNbJA-6rz5GhmISG-e36-110" value="+ store(ECategoria categoria): bool" style="text;strokeColor=none;fillColor=none;align=left;verticalAlign=top;spacingLeft=4;spacingRight=4;overflow=hidden;rotatable=0;points=[[0,0.5],[1,0.5]];portConstraint=eastwest;" parent="oNbJA-6rz5GhmISG-e36-105" vertex="1"><mxGeometry y="216" width="400" height="26" as="geometry"/></mxCell><mxCell id="fd2CHIZkckZelvP4lIL4-1" value="- storeIcona(PDO pdo, array icona): ?int" style="text;strokeColor=none;fillColor=none;align=left;verticalAlign=top;spacingLeft=4;spacingRight=4;overflow=hidden;rotatable=0;points=[[0,0.5],[1,0.5]];portConstraint=eastwest;" parent="oNbJA-6rz5GhmISG-e36-105" vertex="1"><mxGeometry y="242" width="400" height="26" as="geometry"/></mxCell><mxCell id="oNbJA-6rz5GhmISG-e36-112" value="+ delete(int categoriaID): bool" style="text;strokeColor=none;fillColor=none;align=left;verticalAlign=top;spacingLeft=4;spacingRight=4;overflow=hidden;rotatable=0;points=[[0,0.5],[1,0.5]];portConstraint=eastwest;" parent="oNbJA-6rz5GhmISG-e36-105" vertex="1"><mxGeometry y="268" width="400" height="26" as="geometry"/></mxCell><mxCell id="fd2CHIZkckZelvP4lIL4-2" value="- deleteIconaCategoria(PDO pdo, int iconaID): bool" style="text;strokeColor=none;fillColor=none;align=left;verticalAlign=top;spacingLeft=4;spacingRight=4;overflow=hidden;rotatable=0;points=[[0,0.5],[1,0.5]];portConstraint=eastwest;" parent="oNbJA-6rz5GhmISG-e36-105" vertex="1"><mxGeometry y="294" width="400" height="26" as="geometry"/></mxCell><mxCell id="oNbJA-6rz5GhmISG-e36-114" value="+ rimuoviModeratore(int categoriaID, EModeratore moderatore): bool" style="text;strokeColor=none;fillColor=none;align=left;verticalAlign=top;spacingLeft=4;spacingRight=4;overflow=hidden;rotatable=0;points=[[0,0.5],[1,0.5]];portConstraint=eastwest;" parent="oNbJA-6rz5GhmISG-e36-105" vertex="1"><mxGeometry y="320" width="400" height="26" as="geometry"/></mxCell><mxCell id="oNbJA-6rz5GhmISG-e36-107" value="+ loadAll(int rigaPartenza, int numeroRighe): ?array" style="text;strokeColor=none;fillColor=none;align=left;verticalAlign=top;spacingLeft=4;spacingRight=4;overflow=hidden;rotatable=0;points=[[0,0.5],[1,0.5]];portConstraint=eastwest;" parent="oNbJA-6rz5GhmISG-e36-105" vertex="1"><mxGeometry y="346" width="400" height="26" as="geometry"/></mxCell><mxCell id="4" value="+ loadAllSenzaPaginazione(): ?array" style="text;strokeColor=#82b366;fillColor=#d5e8d4;align=left;verticalAlign=top;spacingLeft=4;spacingRight=4;overflow=hidden;rotatable=0;points=[[0,0.5],[1,0.5]];portConstraint=eastwest;" vertex="1" parent="oNbJA-6rz5GhmISG-e36-105"><mxGeometry y="372" width="400" height="26" as="geometry"/></mxCell><mxCell id="sAUMDpPgHHQ6I5a3Jarb-3" value="+ conta(): ?int" style="text;strokeColor=#82b366;fillColor=#d5e8d4;align=left;verticalAlign=top;spacingLeft=4;spacingRight=4;overflow=hidden;rotatable=0;points=[[0,0.5],[1,0.5]];portConstraint=eastwest;" parent="oNbJA-6rz5GhmISG-e36-105" vertex="1"><mxGeometry y="398" width="400" height="26" as="geometry"/></mxCell><mxCell id="oNbJA-6rz5GhmISG-e36-115" value="FValutazione" style="swimlane;fontStyle=1;align=center;verticalAlign=top;childLayout=stackLayout;horizontal=1;startSize=26;horizontalStack=0;resizeParent=1;resizeParentMax=0;resizeLast=0;collapsible=1;marginBottom=0;fillColor=#ffffff;" parent="1" vertex="1"><mxGeometry x="1040" y="1737" width="440" height="398" as="geometry"><mxRectangle x="960" y="520" width="100" height="26" as="alternateBounds"/></mxGeometry></mxCell><mxCell id="oNbJA-6rz5GhmISG-e36-135" value="- instance: ?FValutazione" style="text;strokeColor=none;fillColor=none;align=left;verticalAlign=top;spacingLeft=4;spacingRight=4;overflow=hidden;rotatable=0;points=[[0,0.5],[1,0.5]];portConstraint=eastwest;fontStyle=4" parent="oNbJA-6rz5GhmISG-e36-115" vertex="1"><mxGeometry y="26" width="440" height="26" as="geometry"/></mxCell><mxCell id="oNbJA-6rz5GhmISG-e36-116" value="" style="line;strokeWidth=1;fillColor=none;align=left;verticalAlign=middle;spacingTop=-1;spacingLeft=3;spacingRight=3;rotatable=0;labelPosition=right;points=[];portConstraint=eastwest;" parent="oNbJA-6rz5GhmISG-e36-115" vertex="1"><mxGeometry y="52" width="440" height="8" as="geometry"/></mxCell><mxCell id="oNbJA-6rz5GhmISG-e36-146" value="- __construct()" style="text;strokeColor=none;fillColor=none;align=left;verticalAlign=top;spacingLeft=4;spacingRight=4;overflow=hidden;rotatable=0;points=[[0,0.5],[1,0.5]];portConstraint=eastwest;" parent="oNbJA-6rz5GhmISG-e36-115" vertex="1"><mxGeometry y="60" width="440" height="26" as="geometry"/></mxCell><mxCell id="oNbJA-6rz5GhmISG-e36-147" value="+ getInstance(): FValutazione" style="text;strokeColor=none;fillColor=none;align=left;verticalAlign=top;spacingLeft=4;spacingRight=4;overflow=hidden;rotatable=0;points=[[0,0.5],[1,0.5]];portConstraint=eastwest;fontStyle=4" parent="oNbJA-6rz5GhmISG-e36-115" vertex="1"><mxGeometry y="86" width="440" height="26" as="geometry"/></mxCell><mxCell id="oNbJA-6rz5GhmISG-e36-117" value="+ load(int valutazioneID): ?EValutazione" style="text;strokeColor=none;fillColor=none;align=left;verticalAlign=top;spacingLeft=4;spacingRight=4;overflow=hidden;rotatable=0;points=[[0,0.5],[1,0.5]];portConstraint=eastwest;" parent="oNbJA-6rz5GhmISG-e36-115" vertex="1"><mxGeometry y="112" width="440" height="26" as="geometry"/></mxCell><mxCell id="oNbJA-6rz5GhmISG-e36-118" value="+ loadValutazioneThread(int treadID): ?EValutazione" style="text;strokeColor=none;fillColor=none;align=left;verticalAlign=top;spacingLeft=4;spacingRight=4;overflow=hidden;rotatable=0;points=[[0,0.5],[1,0.5]];portConstraint=eastwest;" parent="oNbJA-6rz5GhmISG-e36-115" vertex="1"><mxGeometry y="138" width="440" height="26" as="geometry"/></mxCell><mxCell id="oNbJA-6rz5GhmISG-e36-120" value="+ update(EValutazione valutazione, int tipologiaVoto, EUser userVotante): bool" style="text;strokeColor=none;fillColor=none;align=left;verticalAlign=top;spacingLeft=4;spacingRight=4;overflow=hidden;rotatable=0;points=[[0,0.5],[1,0.5]];portConstraint=eastwest;" parent="oNbJA-6rz5GhmISG-e36-115" vertex="1"><mxGeometry y="164" width="440" height="26" as="geometry"/></mxCell><mxCell id="oNbJA-6rz5GhmISG-e36-119" value="+ store(PDO pdo, EValutazione v): ?int" style="text;strokeColor=none;fillColor=none;align=left;verticalAlign=top;spacingLeft=4;spacingRight=4;overflow=hidden;rotatable=0;points=[[0,0.5],[1,0.5]];portConstraint=eastwest;" parent="oNbJA-6rz5GhmISG-e36-115" vertex="1"><mxGeometry y="190" width="440" height="26" as="geometry"/></mxCell><mxCell id="oNbJA-6rz5GhmISG-e36-122" value="- storeVotiPositivi(PDO pdo, int valutazioneID, int userID): bool" style="text;strokeColor=none;fillColor=none;align=left;verticalAlign=top;spacingLeft=4;spacingRight=4;overflow=hidden;rotatable=0;points=[[0,0.5],[1,0.5]];portConstraint=eastwest;" parent="oNbJA-6rz5GhmISG-e36-115" vertex="1"><mxGeometry y="216" width="440" height="26" as="geometry"/></mxCell><mxCell id="oNbJA-6rz5GhmISG-e36-124" value="- storeVotiNegativi(PDO pdo, int valutazioneID, int userID): bool" style="text;strokeColor=none;fillColor=none;align=left;verticalAlign=top;spacingLeft=4;spacingRight=4;overflow=hidden;rotatable=0;points=[[0,0.5],[1,0.5]];portConstraint=eastwest;" parent="oNbJA-6rz5GhmISG-e36-115" vertex="1"><mxGeometry y="242" width="440" height="26" as="geometry"/></mxCell><mxCell id="oNbJA-6rz5GhmISG-e36-125" value="+ delete(PDO pdo, int valutazioneID): bool" style="text;strokeColor=none;fillColor=none;align=left;verticalAlign=top;spacingLeft=4;spacingRight=4;overflow=hidden;rotatable=0;points=[[0,0.5],[1,0.5]];portConstraint=eastwest;" parent="oNbJA-6rz5GhmISG-e36-115" vertex="1"><mxGeometry y="268" width="440" height="26" as="geometry"/></mxCell><mxCell id="oNbJA-6rz5GhmISG-e36-121" value="- existsInVotiPositivi(PDO pdo, int valutazioneID, int userID): bool" style="text;strokeColor=#b85450;fillColor=#f8cecc;align=left;verticalAlign=top;spacingLeft=4;spacingRight=4;overflow=hidden;rotatable=0;points=[[0,0.5],[1,0.5]];portConstraint=eastwest;" parent="oNbJA-6rz5GhmISG-e36-115" vertex="1"><mxGeometry y="294" width="440" height="26" as="geometry"/></mxCell><mxCell id="oNbJA-6rz5GhmISG-e36-123" value="- existsInVotiNegativi(PDO pdo, int valutazioneID, int userID): bool" style="text;strokeColor=#b85450;fillColor=#f8cecc;align=left;verticalAlign=top;spacingLeft=4;spacingRight=4;overflow=hidden;rotatable=0;points=[[0,0.5],[1,0.5]];portConstraint=eastwest;" parent="oNbJA-6rz5GhmISG-e36-115" vertex="1"><mxGeometry y="320" width="440" height="26" as="geometry"/></mxCell><mxCell id="sAUMDpPgHHQ6I5a3Jarb-12" value="- deleteVotiPositivi(PDO pdo, int valutazioneID, int userID): bool" style="text;strokeColor=#82b366;fillColor=#d5e8d4;align=left;verticalAlign=top;spacingLeft=4;spacingRight=4;overflow=hidden;rotatable=0;points=[[0,0.5],[1,0.5]];portConstraint=eastwest;" parent="oNbJA-6rz5GhmISG-e36-115" vertex="1"><mxGeometry y="346" width="440" height="26" as="geometry"/></mxCell><mxCell id="sAUMDpPgHHQ6I5a3Jarb-13" value="- deleteInVotiNegativi(PDO pdo, int valutazioneID, int userID): bool" style="text;strokeColor=#82b366;fillColor=#d5e8d4;align=left;verticalAlign=top;spacingLeft=4;spacingRight=4;overflow=hidden;rotatable=0;points=[[0,0.5],[1,0.5]];portConstraint=eastwest;" parent="oNbJA-6rz5GhmISG-e36-115" vertex="1"><mxGeometry y="372" width="440" height="26" as="geometry"/></mxCell></root></mxGraphModel></diagram></mxfile>